<svg width="25" height="33" viewBox="0 0 25 33" fill="none" xmlns="http://www.w3.org/2000/svg">
<path d="M24.0895 19.028C23.7229 14.2556 21.5009 11.2649 19.5406 8.62578C17.7255 6.18254 16.1578 4.07266 16.1578 0.960289C16.1578 0.710289 16.0178 0.481789 15.7958 0.367226C15.5731 0.251977 15.3056 0.270852 15.1031 0.417976C12.1591 2.5246 9.70277 6.07516 8.84471 9.46291C8.24902 11.8215 8.17021 14.473 8.15915 16.2242C5.4404 15.6435 4.82452 11.5767 4.81802 11.5324C4.7874 11.3215 4.65852 11.1379 4.47102 11.0377C4.28159 10.9387 4.0589 10.9315 3.86684 11.0266C3.72427 11.0956 0.367462 12.8012 0.172149 19.6113C0.158462 19.8378 0.157837 20.0651 0.157837 20.2923C0.157837 26.9083 5.54127 32.2915 12.1578 32.2915C12.167 32.2921 12.1767 32.2934 12.1845 32.2915C12.1871 32.2915 12.1897 32.2915 12.193 32.2915C18.7933 32.2725 24.1578 26.8967 24.1578 20.2923C24.1578 19.9596 24.0895 19.028 24.0895 19.028Z" fill="#FF6B00"/>
<path d="M12.1578 30.7924C8.84919 30.7924 6.15787 27.9165 6.15787 24.3814C6.15787 24.2609 6.15693 24.1394 6.16565 23.9905C6.20568 22.4997 6.48795 21.4819 6.79751 20.805C7.37762 22.0549 8.41467 23.204 10.0992 23.204C10.652 23.204 11.0992 22.7553 11.0992 22.2009C11.0992 20.7728 11.1286 19.1251 11.483 17.6381C11.7985 16.3197 12.5523 14.9169 13.5074 13.7924C13.9322 15.252 14.7604 16.4333 15.569 17.5862C16.7262 19.2357 17.9224 20.9412 18.1324 23.8495C18.1451 24.0218 18.1578 24.1953 18.1578 24.3814C18.1576 27.9164 15.4663 30.7924 12.1578 30.7924Z" fill="#FFD66B"/>
</svg>
