<svg width="99" height="63" viewBox="0 0 99 63" fill="none" xmlns="http://www.w3.org/2000/svg">
<path d="M98.288 60.8457C98.2156 60.3535 97.803 59.9772 97.3036 59.9699C95.5083 59.941 91.1434 59.362 86.7422 54.9616C80.5169 48.7374 77.5853 47.6445 73.7343 47.6445C69.4996 47.6445 64.8813 49.9316 60.7263 54.0859C56.5206 58.2908 53.2776 59.9265 49.1588 59.9265C44.9459 59.9265 40.6533 56.2643 38.4672 54.0859C36.2377 51.8567 30.6494 47.6445 25.4592 47.6445C20.9857 47.6445 16.6569 50.9086 13.1751 53.5286L12.5598 53.9918C11.8939 54.4912 11.2568 55.0195 10.6415 55.5334C8.10075 57.6539 5.68302 59.666 0.963373 59.9048C0.427707 59.9337 0.000610352 60.3825 0.000610352 60.918C0.000610352 61.5043 0.492881 61.9675 1.07922 61.9385C6.4793 61.6563 9.37476 59.2389 11.9445 57.0967C12.567 56.5756 13.1534 56.0834 13.7759 55.6202L14.3984 55.1498C17.6341 52.7108 21.6589 49.6783 25.452 49.6783C29.1654 49.6783 34.1819 52.689 37.0194 55.5189C39.4227 57.9217 44.2003 61.9602 49.1516 61.9602C53.8133 61.9602 57.5846 60.093 62.1595 55.5189C65.9309 51.7482 70.0353 49.6783 73.727 49.6783C76.6515 49.6783 79.0402 50.1487 85.2945 56.4019C90.1806 61.2944 95.0885 61.9819 97.2746 62.0109C97.8971 62.0254 98.3821 61.4681 98.288 60.8457Z" fill="#005AAA"/>
<path d="M98.288 37.0195C98.2156 36.5273 97.803 36.151 97.3036 36.1438C95.5083 36.1148 91.1434 35.5358 86.7422 31.1354C80.5169 24.9112 77.5853 23.8184 73.7343 23.8184C69.4996 23.8184 64.8813 26.1054 60.7263 30.2597C56.5206 34.4647 53.2776 36.1003 49.1588 36.1003C44.9459 36.1003 40.6533 32.4382 38.4672 30.2597C36.2377 28.0306 30.6494 23.8184 25.4592 23.8184C20.9857 23.8184 16.6569 27.0824 13.1751 29.7024L12.5598 30.1656C11.8939 30.665 11.2568 31.1933 10.6415 31.7072C8.10075 33.8278 5.68302 35.8398 0.963373 36.0786C0.427707 36.1076 0.000610352 36.5563 0.000610352 37.0919C0.000610352 37.6781 0.492881 38.1413 1.07922 38.1123C6.4793 37.8301 9.37476 35.4128 11.9445 33.2705C12.567 32.7494 13.1534 32.2572 13.7759 31.794L14.3984 31.3236C17.6341 28.8846 21.6589 25.8521 25.452 25.8521C29.1654 25.8521 34.1819 28.8629 37.0194 31.6927C39.4227 34.0956 44.2003 38.1341 49.1516 38.1341C53.8133 38.1341 57.5846 36.2668 62.1595 31.6927C65.9309 27.922 70.0353 25.8521 73.727 25.8521C76.6515 25.8521 79.0402 26.3225 85.2945 32.5757C90.1806 37.461 95.0885 38.1485 97.2746 38.1847C97.8971 38.1992 98.3821 37.6419 98.288 37.0195Z" fill="#005AAA"/>
<path d="M1.07861 14.294C6.47869 14.0117 9.37415 11.5944 11.9439 9.45212C12.5664 8.93103 13.1528 8.43888 13.7753 7.97568L14.3978 7.50525C17.6335 5.06622 21.6583 2.03373 25.4514 2.03373C29.1648 2.03373 34.1813 5.04451 37.0188 7.87436C39.4221 10.2772 44.1997 14.3157 49.1509 14.3157C53.8127 14.3157 57.584 12.4484 62.1589 7.87436C65.9303 4.10364 70.0347 2.03373 73.7264 2.03373C76.6509 2.03373 79.0396 2.50416 85.2939 8.75733C90.18 13.6426 95.0879 14.3302 97.274 14.3664C97.8965 14.3736 98.3815 13.8163 98.2874 13.2011C98.215 12.709 97.8024 12.3326 97.3029 12.3254C95.5077 12.2964 91.1428 11.7175 86.7416 7.31707C80.5163 1.09286 77.5847 0 73.7337 0C69.499 0 64.8807 2.28703 60.7257 6.44134C56.52 10.6463 53.277 12.282 49.1582 12.282C44.9453 12.282 40.6527 8.61981 38.4666 6.44134C36.2371 4.2122 30.6488 0 25.4586 0C20.9851 0 16.6563 3.26409 13.1745 5.88406L12.5592 6.34725C11.8932 6.84664 11.2562 7.37497 10.6409 7.88883C8.10014 10.0094 5.68241 12.0214 0.962762 12.2603C0.427097 12.2892 0 12.7379 0 13.2735C0 13.8597 0.499509 14.3229 1.07861 14.294Z" fill="#005AAA"/>
</svg>
